<svg xmlns="http://www.w3.org/2000/svg" width="29.566" height="29.566" viewBox="0 0 29.566 29.566"><defs><style>.a{fill:#fff;fill-rule:evenodd;}</style></defs><path class="a" d="M14.783,2.628a45.328,45.328,0,0,1,5.913.164,7.618,7.618,0,0,1,2.792.493,5.769,5.769,0,0,1,2.792,2.792,7.619,7.619,0,0,1,.493,2.792c0,1.478.164,1.971.164,5.913a45.327,45.327,0,0,1-.164,5.913,7.619,7.619,0,0,1-.493,2.792,5.769,5.769,0,0,1-2.792,2.792,7.619,7.619,0,0,1-2.792.493c-1.478,0-1.971.164-5.913.164a45.327,45.327,0,0,1-5.913-.164,7.619,7.619,0,0,1-2.792-.493,5.769,5.769,0,0,1-2.792-2.792A7.619,7.619,0,0,1,2.792,20.7c0-1.478-.164-1.971-.164-5.913A45.328,45.328,0,0,1,2.792,8.87a7.618,7.618,0,0,1,.493-2.792,5.9,5.9,0,0,1,1.15-1.643,2.777,2.777,0,0,1,1.643-1.15A7.618,7.618,0,0,1,8.87,2.792a45.328,45.328,0,0,1,5.913-.164m0-2.628A48.533,48.533,0,0,0,8.706.164,10.141,10.141,0,0,0,5.092.821,6.43,6.43,0,0,0,2.464,2.464,6.43,6.43,0,0,0,.821,5.092,7.484,7.484,0,0,0,.164,8.706,48.533,48.533,0,0,0,0,14.783a48.533,48.533,0,0,0,.164,6.077,10.141,10.141,0,0,0,.657,3.614A6.43,6.43,0,0,0,2.464,27.1a6.43,6.43,0,0,0,2.628,1.643,10.141,10.141,0,0,0,3.614.657,48.533,48.533,0,0,0,6.078.164,48.533,48.533,0,0,0,6.077-.164,10.141,10.141,0,0,0,3.614-.657,6.891,6.891,0,0,0,4.271-4.271,10.141,10.141,0,0,0,.657-3.614c0-1.643.164-2.135.164-6.077A48.533,48.533,0,0,0,29.4,8.706a10.141,10.141,0,0,0-.657-3.614A6.43,6.43,0,0,0,27.1,2.464,6.43,6.43,0,0,0,24.474.821,10.141,10.141,0,0,0,20.861.164,48.533,48.533,0,0,0,14.783,0m0,7.227a7.434,7.434,0,0,0-7.556,7.556,7.556,7.556,0,1,0,7.556-7.556m0,12.484a4.84,4.84,0,0,1-4.928-4.928,4.84,4.84,0,0,1,4.928-4.928,4.84,4.84,0,0,1,4.928,4.928,4.84,4.84,0,0,1-4.928,4.928M22.667,5.092A1.807,1.807,0,1,0,24.474,6.9a1.823,1.823,0,0,0-1.807-1.807"/></svg>