<svg xmlns="http://www.w3.org/2000/svg" width="36.452" height="29.566" viewBox="0 0 36.452 29.566"><defs><style>.a{fill:#fff;fill-rule:evenodd;}</style></defs><path class="a" d="M49.543,31.566c13.771,0,21.263-11.34,21.263-21.263V9.29a16.461,16.461,0,0,0,3.645-3.848A16.811,16.811,0,0,1,70.2,6.658a7.879,7.879,0,0,0,3.24-4.05A18.575,18.575,0,0,1,68.781,4.43,7.232,7.232,0,0,0,63.314,2a7.608,7.608,0,0,0-7.493,7.493,3.948,3.948,0,0,0,.2,1.62,20.937,20.937,0,0,1-15.391-7.9A7.755,7.755,0,0,0,39.62,7.063a8.046,8.046,0,0,0,3.24,6.278,6.827,6.827,0,0,1-3.443-1.013h0a7.4,7.4,0,0,0,6.075,7.29,6.243,6.243,0,0,1-2.025.2,3.446,3.446,0,0,1-1.418-.2,7.672,7.672,0,0,0,7.088,5.265,15.29,15.29,0,0,1-9.315,3.24,5.607,5.607,0,0,1-1.823-.2,19.114,19.114,0,0,0,11.543,3.645" transform="translate(-38 -2)"/></svg>