<?xml version="1.0" encoding="UTF-8"?>
<svg xmlns="http://www.w3.org/2000/svg" xmlns:xlink="http://www.w3.org/1999/xlink" width="418pt" height="176pt" viewBox="0 0 418 176" version="1.1">
<g id="surface1">
<path style=" stroke:none;fill-rule:nonzero;fill:rgb(100%,100%,100%);fill-opacity:1;" d="M 6.511719 132.113281 L 3.277344 132.113281 C 3.730469 126.992188 6.742188 111.949219 12.304688 86.976562 C 17.867188 62.003906 21.332031 43.320312 22.695312 30.917969 C 22.695312 29.101562 22.097656 26.910156 20.90625 24.347656 C 19.714844 21.789062 18.492188 19.714844 17.242188 18.121094 L 15.539062 15.730469 L 16.046875 13.171875 C 22.402344 11.242188 33.359375 10.273438 48.914062 10.273438 C 50.390625 13.003906 51.128906 16.902344 51.128906 21.960938 C 51.128906 27.023438 48.292969 41.273438 42.613281 64.710938 L 43.464844 64.710938 C 53.570312 64.710938 60.808594 60.867188 65.179688 53.191406 C 69.550781 45.511719 72.816406 32.570312 74.972656 14.367188 C 83.03125 11.636719 91.492188 10.273438 100.347656 10.273438 C 100.574219 11.066406 100.660156 13.003906 100.601562 16.074219 C 100.542969 19.148438 99.949219 23.101562 98.8125 27.933594 C 97.675781 32.773438 96.003906 37.859375 93.789062 43.207031 C 91.574219 48.554688 88.339844 53.589844 84.082031 58.308594 C 79.824219 63.03125 74.914062 66.816406 69.351562 69.660156 C 75.933594 92.183594 81.613281 106.863281 86.378906 113.6875 C 88.425781 116.53125 90.011719 117.953125 91.152344 117.953125 C 93.195312 117.953125 96.371094 116.929688 100.6875 114.878906 L 102.730469 113.855469 L 106.648438 120.171875 C 102.445312 124.039062 97.59375 127.226562 92.085938 129.726562 C 86.578125 132.226562 81.382812 133.480469 76.503906 133.480469 C 71.621094 133.480469 67.789062 131.546875 65.007812 127.679688 C 62.226562 123.8125 59.898438 119.003906 58.023438 113.257812 C 56.152344 107.515625 54.191406 100.714844 52.148438 92.867188 C 50.105469 85.015625 48.742188 79.101562 48.0625 75.121094 C 47.039062 75.234375 44.371094 75.289062 40.054688 75.289062 C 33.355469 103.730469 30.007812 121.535156 30.007812 128.703125 C 25.585938 130.976562 17.753906 132.113281 6.511719 132.113281 Z M 6.511719 132.113281 "/>
<path style=" stroke:none;fill-rule:nonzero;fill:rgb(100%,100%,100%);fill-opacity:1;" d="M 113.632812 131.941406 L 110.398438 131.941406 C 110.398438 126.597656 112.019531 116.359375 115.253906 101.226562 C 118.488281 86.097656 120.109375 77.503906 120.109375 75.457031 C 120.109375 71.703125 118.515625 67.722656 115.339844 63.511719 L 113.808594 61.464844 L 113.976562 59.246094 C 120.109375 57.539062 129.925781 56.6875 143.4375 56.6875 C 144.914062 58.625 145.707031 62.148438 145.824219 67.269531 C 155.699219 59.648438 164.042969 55.835938 170.859375 55.835938 C 174.945312 55.835938 178.207031 57.257812 180.648438 60.101562 C 183.089844 62.945312 184.3125 66.5 184.3125 70.765625 C 184.3125 75.03125 183.003906 82.398438 180.394531 92.863281 C 177.78125 103.332031 176.476562 110.355469 176.476562 113.9375 C 176.476562 117.523438 176.929688 119.316406 177.839844 119.316406 C 178.519531 119.316406 180.90625 118.234375 184.992188 116.074219 L 187.035156 115.046875 L 190.101562 121.023438 C 189.078125 121.933594 187.71875 123.070312 186.015625 124.433594 C 184.308594 125.796875 181.160156 127.648438 176.5625 129.980469 C 171.960938 132.308594 167.847656 133.476562 164.214844 133.476562 C 155.925781 133.476562 151.78125 128.757812 151.78125 119.316406 C 151.78125 115.332031 153.058594 107.996094 155.613281 97.300781 C 158.167969 86.609375 159.445312 79.722656 159.445312 76.652344 C 159.445312 73.578125 158.480469 72.042969 156.550781 72.042969 C 153.253906 72.042969 149.226562 73.46875 144.457031 76.3125 C 144.117188 78.246094 142.980469 83.367188 141.054688 91.671875 C 137.078125 109.53125 135.089844 122.160156 135.089844 129.554688 C 131.117188 131.144531 123.964844 131.941406 113.632812 131.941406 Z M 113.632812 131.941406 "/>
<path style=" stroke:none;fill-rule:nonzero;fill:rgb(100%,100%,100%);fill-opacity:1;" d="M 230.804688 66.410156 C 230.804688 71.191406 229.273438 79.410156 226.207031 91.070312 C 223.140625 102.730469 221.609375 110.351562 221.609375 113.9375 C 221.609375 117.519531 222.121094 119.3125 223.144531 119.3125 C 223.824219 119.3125 226.433594 118.234375 230.976562 116.070312 L 233.019531 115.046875 L 235.917969 121.019531 C 234.894531 121.929688 233.53125 123.066406 231.828125 124.433594 C 230.125 125.796875 226.945312 127.644531 222.292969 129.976562 C 217.636719 132.308594 213.324219 133.472656 209.351562 133.472656 C 205.375 133.472656 202.25 132.25 199.984375 129.808594 C 197.710938 127.359375 196.578125 124.0625 196.578125 119.90625 C 196.578125 115.757812 197.996094 108.363281 200.835938 97.722656 C 203.671875 87.089844 205.09375 80.175781 205.09375 76.988281 C 205.09375 72.210938 203.617188 67.71875 200.664062 63.507812 L 199.132812 61.460938 L 199.300781 59.242188 C 205.316406 57.535156 215.082031 56.683594 228.59375 56.683594 C 230.066406 58.390625 230.804688 61.636719 230.804688 66.410156 Z M 230.804688 66.410156 "/>
<path style=" stroke:none;fill-rule:nonzero;fill:rgb(100%,100%,100%);fill-opacity:1;" d="M 295.179688 57.878906 C 294.949219 60.722656 293.988281 64.023438 292.28125 67.777344 C 287.964844 67.324219 283.878906 67.09375 280.019531 67.09375 L 276.953125 67.09375 C 271.730469 92.464844 269.121094 108.277344 269.121094 114.53125 C 269.121094 117.835938 269.828125 119.480469 271.25 119.480469 C 272.667969 119.480469 276.445312 118.058594 282.574219 115.214844 L 285.640625 120.847656 C 275.535156 129.265625 266.167969 133.472656 257.539062 133.472656 C 253.566406 133.472656 250.304688 132.21875 247.75 129.71875 C 245.195312 127.21875 243.917969 123.890625 243.917969 119.734375 C 243.917969 115.585938 244.398438 110.890625 245.363281 105.65625 C 246.328125 100.425781 247.660156 94.027344 249.367188 86.460938 C 251.070312 78.894531 252.316406 72.78125 253.109375 68.113281 C 248.910156 68.453125 245.789062 68.796875 243.746094 69.136719 C 243.515625 67.773438 243.40625 65.925781 243.40625 63.59375 C 243.40625 61.261719 243.574219 59.355469 243.914062 57.875 L 254.644531 57.875 C 255.550781 51.730469 256.003906 45.929688 256.003906 40.46875 L 255.835938 35.175781 L 255.835938 34.664062 C 264.6875 31.59375 273.035156 30.058594 280.871094 30.058594 C 281.320312 32.335938 281.550781 35.175781 281.550781 38.589844 C 281.550781 42.003906 280.585938 48.429688 278.65625 57.871094 L 295.179688 57.871094 Z M 295.179688 57.878906 "/>
<path style=" stroke:none;fill-rule:nonzero;fill:rgb(100%,100%,100%);fill-opacity:1;" d="M 305.308594 133.476562 C 301.390625 133.476562 298.15625 132.167969 295.601562 129.550781 C 293.050781 126.933594 291.769531 123.269531 291.769531 118.546875 C 291.769531 113.828125 294.582031 98.75 300.199219 73.324219 C 305.820312 47.898438 308.628906 29.550781 308.628906 18.289062 L 307.609375 10.78125 C 316.464844 7.707031 324.75 6.171875 332.472656 6.171875 C 333.609375 7.769531 334.175781 10.554688 334.175781 14.535156 C 334.175781 23.636719 331.308594 41.242188 325.578125 67.351562 C 319.84375 93.460938 316.976562 108.648438 316.976562 112.914062 C 316.976562 117.179688 317.488281 119.316406 318.507812 119.316406 L 330.429688 115.046875 L 333.496094 121.023438 C 329.636719 124.09375 324.949219 126.9375 319.445312 129.554688 C 313.9375 132.167969 309.226562 133.476562 305.308594 133.476562 Z M 305.308594 133.476562 "/>
<path style=" stroke:none;fill-rule:nonzero;fill:rgb(100%,100%,100%);fill-opacity:1;" d="M 214.738281 9.03125 C 214.945312 8.886719 215.152344 8.738281 215.363281 8.601562 C 216.765625 7.683594 218.3125 7.351562 219.964844 7.511719 C 221.261719 7.640625 222.507812 7.964844 223.675781 8.550781 C 224.226562 8.824219 224.703125 9.21875 225.144531 9.648438 C 226.277344 10.757812 227.289062 11.96875 228.015625 13.390625 C 228.234375 13.820312 228.410156 14.277344 228.609375 14.722656 C 228.796875 15.152344 228.984375 15.578125 229.175781 16.011719 C 229.183594 16.03125 229.199219 16.050781 229.230469 16.09375 C 229.398438 15.941406 229.585938 15.816406 229.71875 15.648438 C 230.359375 14.832031 231.019531 14.03125 231.617188 13.1875 C 232.644531 11.726562 233.359375 10.117188 233.730469 8.363281 C 233.742188 8.300781 233.761719 8.234375 233.78125 8.171875 C 233.878906 7.867188 234.039062 7.75 234.351562 7.742188 C 234.4375 7.738281 234.523438 7.746094 234.621094 7.75 C 234.707031 8.054688 234.714844 8.355469 234.664062 8.664062 C 234.632812 8.84375 234.601562 9.027344 234.535156 9.199219 C 234.183594 10.121094 233.851562 11.046875 233.457031 11.949219 C 232.910156 13.210938 232.117188 14.320312 231.195312 15.335938 C 230.722656 15.855469 230.226562 16.34375 229.671875 16.773438 C 229.425781 16.964844 229.386719 17.21875 229.449219 17.503906 C 229.609375 18.234375 229.773438 18.960938 229.933594 19.691406 C 230.375 21.707031 230.839844 23.722656 231.152344 25.765625 C 231.308594 26.800781 231.417969 27.835938 231.417969 28.882812 C 231.417969 29.960938 231.300781 31.027344 231.078125 32.082031 C 230.824219 33.289062 230.578125 34.496094 230.355469 35.707031 C 230.167969 36.746094 229.789062 37.691406 229.234375 38.585938 C 227.925781 40.707031 226.636719 42.839844 225.339844 44.96875 C 224.832031 45.800781 224.277344 46.605469 223.644531 47.351562 C 223.621094 47.375 223.609375 47.410156 223.59375 47.441406 C 223.304688 47.730469 223.015625 48.019531 222.726562 48.308594 C 222.683594 48.332031 222.640625 48.355469 222.601562 48.386719 C 222.027344 48.882812 221.40625 49.308594 220.71875 49.636719 C 220.414062 49.78125 220.109375 49.917969 219.824219 50.097656 C 218.703125 50.800781 217.503906 51.320312 216.234375 51.664062 C 214.496094 52.140625 212.710938 52.375 210.925781 52.574219 C 209.570312 52.726562 208.28125 52.507812 207.046875 51.929688 C 206.519531 51.679688 205.988281 51.429688 205.445312 51.203125 C 204.660156 50.867188 203.910156 50.464844 203.226562 49.949219 C 203.035156 49.804688 202.84375 49.664062 202.652344 49.523438 C 202.265625 49.132812 201.875 48.742188 201.480469 48.347656 C 201.425781 48.261719 201.375 48.179688 201.316406 48.097656 C 201.007812 47.664062 200.664062 47.253906 200.402344 46.792969 C 199.964844 46.007812 199.585938 45.1875 199.171875 44.394531 C 198.363281 42.839844 197.808594 41.199219 197.488281 39.480469 C 197.234375 38.132812 197.167969 36.765625 197.085938 35.402344 C 197.082031 35.296875 197.105469 35.191406 197.136719 35.085938 C 197.347656 34.359375 197.558594 33.636719 197.777344 32.910156 C 198.199219 31.53125 198.730469 30.203125 199.5 28.980469 C 199.859375 28.410156 200.261719 27.867188 200.613281 27.292969 C 201.222656 26.316406 201.960938 25.449219 202.882812 24.761719 C 204.09375 23.859375 205.425781 23.179688 206.855469 22.695312 C 209.273438 21.875 211.726562 21.789062 214.214844 22.332031 C 215.167969 22.539062 216.082031 22.859375 216.898438 23.410156 C 217.933594 24.109375 218.964844 24.816406 219.992188 25.527344 C 220.789062 26.078125 221.5 26.726562 222.023438 27.546875 C 222.703125 28.605469 223.367188 29.671875 224.019531 30.746094 C 224.441406 31.441406 224.84375 32.144531 225.226562 32.859375 C 225.378906 33.132812 225.523438 33.386719 225.800781 33.550781 C 226 33.664062 226.09375 33.949219 226.007812 34.109375 C 225.875 34.355469 225.855469 34.613281 225.890625 34.882812 C 225.921875 35.113281 225.957031 35.339844 225.980469 35.570312 C 226.097656 36.8125 226.203125 38.054688 226.332031 39.296875 C 226.382812 39.820312 226.480469 40.339844 226.554688 40.859375 C 226.800781 40.84375 226.804688 40.847656 226.914062 40.671875 C 227.070312 40.425781 227.230469 40.179688 227.363281 39.921875 C 227.5625 39.535156 227.71875 39.128906 227.921875 38.746094 C 228.503906 37.671875 228.929688 36.542969 229.113281 35.332031 C 229.367188 33.65625 229.605469 31.984375 229.851562 30.304688 C 230.011719 29.230469 230.144531 28.15625 230.15625 27.070312 C 230.167969 25.925781 230.054688 24.789062 229.878906 23.660156 C 229.628906 22.023438 229.394531 20.382812 228.992188 18.769531 C 228.886719 18.339844 228.761719 17.914062 228.644531 17.472656 C 228.585938 17.492188 228.542969 17.503906 228.503906 17.523438 C 227.964844 17.78125 227.433594 18.054688 226.890625 18.292969 C 226.230469 18.582031 225.550781 18.820312 224.902344 19.132812 C 223.519531 19.789062 222.050781 20.039062 220.539062 19.972656 C 219.097656 19.902344 217.671875 19.617188 216.253906 19.34375 C 215.742188 19.242188 215.304688 18.980469 214.941406 18.597656 C 214.496094 18.128906 214.042969 17.664062 213.597656 17.1875 C 213.511719 17.097656 213.441406 16.980469 213.402344 16.867188 C 213.226562 16.3125 213.050781 15.753906 212.902344 15.191406 C 212.4375 13.421875 212.707031 11.765625 213.710938 10.230469 C 213.820312 10.058594 213.941406 9.890625 214.058594 9.714844 C 214.292969 9.476562 214.515625 9.253906 214.738281 9.03125 Z M 215.628906 10.46875 C 215.636719 10.480469 215.648438 10.492188 215.660156 10.503906 C 215.550781 10.601562 215.445312 10.691406 215.339844 10.789062 C 214.082031 11.9375 213.570312 13.347656 213.871094 15.035156 C 214.050781 16.019531 214.640625 16.769531 215.359375 17.417969 C 216.253906 18.222656 217.308594 18.726562 218.46875 19.027344 C 219.492188 19.292969 220.53125 19.363281 221.585938 19.289062 C 221.871094 19.265625 222.164062 19.273438 222.433594 19.203125 C 224.355469 18.730469 226.175781 17.992188 227.910156 17.035156 C 228.359375 16.789062 228.429688 16.578125 228.226562 16.109375 C 228.214844 16.082031 228.203125 16.054688 228.191406 16.027344 C 227.796875 15.191406 227.410156 14.351562 227.007812 13.519531 C 226.59375 12.660156 226.09375 11.855469 225.378906 11.21875 C 224.90625 10.800781 224.417969 10.40625 223.921875 10.023438 C 223.027344 9.339844 222.039062 8.84375 220.941406 8.574219 C 219.632812 8.257812 218.382812 8.382812 217.257812 9.148438 C 216.679688 9.542969 216.167969 10.027344 215.628906 10.46875 Z M 222.113281 47.425781 C 222.417969 47.160156 222.726562 46.910156 223.015625 46.632812 C 223.292969 46.367188 223.339844 46.03125 223.230469 45.667969 C 223.191406 45.539062 223.148438 45.40625 223.09375 45.28125 C 222.625 44.121094 222.242188 42.9375 221.988281 41.710938 C 221.796875 40.804688 221.621094 39.898438 221.414062 38.996094 C 221.175781 37.9375 221.121094 36.878906 221.308594 35.8125 C 221.335938 35.640625 221.460938 35.484375 221.546875 35.328125 C 221.558594 35.304688 221.609375 35.289062 221.636719 35.289062 C 221.933594 35.324219 222.164062 35.460938 222.125 35.824219 C 222.117188 35.894531 222.101562 35.964844 222.085938 36.035156 C 221.890625 36.867188 221.855469 37.707031 222.015625 38.546875 C 222.144531 39.222656 222.300781 39.886719 222.460938 40.550781 C 222.730469 41.675781 222.992188 42.800781 223.292969 43.914062 C 223.402344 44.316406 223.613281 44.6875 223.78125 45.070312 C 223.820312 45.164062 223.894531 45.25 224 45.214844 C 224.058594 45.195312 224.109375 45.105469 224.132812 45.039062 C 224.304688 44.535156 224.464844 44.03125 224.625 43.523438 C 224.742188 43.160156 224.859375 42.796875 224.976562 42.433594 C 224.414062 42.214844 224.300781 42.054688 224.273438 41.449219 C 224.269531 41.355469 224.265625 41.265625 224.261719 41.171875 C 224.195312 39.59375 224.125 38.015625 224.058594 36.4375 C 224.039062 36.023438 223.832031 35.761719 223.445312 35.632812 C 223.1875 35.546875 222.933594 35.457031 222.6875 35.34375 C 221.746094 34.910156 220.777344 34.875 219.777344 35.050781 C 219.660156 35.074219 219.59375 35.136719 219.542969 35.246094 C 219.261719 35.875 219.175781 36.535156 219.230469 37.222656 C 219.429688 39.703125 219.929688 42.121094 220.789062 44.457031 C 221.15625 45.46875 221.570312 46.457031 222.113281 47.425781 Z M 210.871094 23.371094 C 210.164062 23.144531 209.667969 23.261719 209.21875 23.769531 C 208.5 24.589844 207.875 25.480469 207.257812 26.378906 C 205.683594 28.679688 204.496094 31.167969 203.601562 33.804688 C 202.945312 35.738281 202.445312 37.714844 202.035156 39.714844 C 201.707031 41.3125 201.429688 42.910156 201.539062 44.554688 C 201.5625 44.933594 201.570312 45.308594 201.785156 45.644531 C 202.050781 46.066406 202.0625 46.492188 201.761719 46.902344 C 201.695312 46.996094 201.722656 47.050781 201.785156 47.113281 C 201.890625 47.21875 201.996094 47.328125 202.097656 47.433594 C 202.546875 47.914062 203 48.394531 203.449219 48.878906 C 203.597656 49.039062 203.78125 49.132812 204.023438 49.175781 C 203.929688 48.976562 203.851562 48.800781 203.769531 48.625 C 203.566406 48.199219 203.371094 47.773438 203.289062 47.304688 C 202.910156 45.140625 202.839844 42.972656 203.085938 40.789062 C 203.375 38.195312 204.015625 35.683594 204.933594 33.242188 C 205.613281 31.433594 206.402344 29.675781 207.421875 28.023438 C 208.234375 26.710938 209.203125 25.519531 210.179688 24.328125 C 210.425781 24.027344 210.636719 23.699219 210.871094 23.371094 Z M 211.992188 23.554688 C 211.980469 23.539062 211.964844 23.53125 211.953125 23.519531 C 211.804688 23.644531 211.636719 23.757812 211.511719 23.902344 C 210.714844 24.867188 209.921875 25.835938 209.136719 26.8125 C 208.28125 27.871094 207.550781 29.015625 206.929688 30.226562 C 206.179688 31.703125 205.613281 33.25 205.113281 34.824219 C 204.394531 37.101562 203.859375 39.421875 203.675781 41.808594 C 203.585938 42.980469 203.554688 44.148438 203.6875 45.320312 C 203.796875 46.316406 204.035156 47.28125 204.433594 48.203125 C 204.59375 48.570312 204.535156 48.800781 204.222656 49.050781 C 204.164062 49.101562 204.109375 49.152344 204.046875 49.210938 C 204.773438 49.644531 205.484375 50.070312 206.214844 50.507812 C 206.222656 50.191406 206.183594 49.910156 206.082031 49.640625 C 206.015625 49.460938 205.9375 49.289062 205.875 49.113281 C 204.816406 46.023438 204.535156 42.847656 204.945312 39.621094 C 205.28125 36.953125 206.148438 34.445312 207.34375 32.042969 C 208.019531 30.6875 208.804688 29.398438 209.582031 28.101562 C 210.425781 26.699219 211.214844 25.261719 211.910156 23.773438 C 211.9375 23.699219 211.964844 23.625 211.992188 23.554688 Z M 208.148438 23.820312 C 207.789062 23.757812 207.597656 23.8125 207.375 24.0625 C 206.753906 24.753906 206.125 25.441406 205.519531 26.144531 C 204.96875 26.78125 204.453125 27.453125 204.082031 28.21875 C 203.414062 29.59375 202.757812 30.980469 202.105469 32.363281 C 201.59375 33.457031 201.148438 34.578125 200.90625 35.765625 C 200.726562 36.628906 200.558594 37.492188 200.386719 38.351562 C 200.074219 39.882812 199.933594 41.429688 199.925781 42.984375 C 199.921875 43.621094 200.023438 44.242188 200.335938 44.804688 C 200.4375 44.988281 200.550781 45.15625 200.65625 45.332031 C 200.675781 45.328125 200.691406 45.328125 200.710938 45.328125 C 201.257812 37.492188 203.46875 30.226562 208.148438 23.820312 Z M 217.050781 50.320312 C 217.03125 50.257812 217.019531 50.207031 217.003906 50.160156 C 216.792969 49.558594 216.582031 48.957031 216.367188 48.355469 C 215.898438 47.007812 215.410156 45.667969 214.964844 44.316406 C 214.371094 42.519531 214.019531 40.664062 213.648438 38.816406 C 213.53125 38.210938 213.460938 37.601562 213.484375 36.988281 C 213.492188 36.816406 213.476562 36.640625 213.472656 36.46875 C 213.183594 36.40625 212.398438 36.5625 212.15625 36.730469 C 212.019531 36.824219 211.925781 36.949219 211.898438 37.113281 C 211.878906 37.222656 211.859375 37.335938 211.859375 37.449219 C 211.847656 38.628906 211.9375 39.804688 212.242188 40.945312 C 212.863281 43.246094 213.5 45.539062 214.148438 47.832031 C 214.445312 48.898438 215.023438 49.804688 215.839844 50.558594 C 215.890625 50.605469 215.992188 50.652344 216.050781 50.632812 C 216.382812 50.542969 216.710938 50.429688 217.050781 50.320312 Z M 218.507812 34.957031 C 218.003906 35.0625 217.53125 35.15625 217.058594 35.261719 C 216.996094 35.273438 216.921875 35.351562 216.910156 35.410156 C 216.722656 36.199219 216.589844 36.996094 216.683594 37.8125 C 217.101562 41.375 218.132812 44.769531 219.597656 48.035156 C 219.726562 48.316406 219.867188 48.589844 220.003906 48.878906 C 220.519531 48.578125 221.015625 48.28125 221.515625 47.984375 C 221.332031 47.574219 221.144531 47.179688 220.96875 46.785156 C 220.5 45.714844 220.183594 44.59375 219.855469 43.472656 C 219.414062 41.960938 218.964844 40.453125 218.734375 38.890625 C 218.570312 37.796875 218.429688 36.703125 218.492188 35.589844 C 218.503906 35.386719 218.5 35.183594 218.507812 34.957031 Z M 215.847656 35.441406 C 215.449219 35.539062 215.0625 35.628906 214.679688 35.734375 C 214.621094 35.75 214.558594 35.839844 214.542969 35.902344 C 214.449219 36.328125 214.34375 36.75 214.285156 37.179688 C 214.210938 37.742188 214.328125 38.300781 214.421875 38.855469 C 214.84375 41.304688 215.421875 43.710938 216.199219 46.074219 C 216.496094 46.972656 216.828125 47.867188 217.183594 48.746094 C 217.351562 49.164062 217.613281 49.542969 217.832031 49.941406 C 218.382812 49.714844 218.902344 49.5 219.410156 49.289062 C 219.40625 49.253906 219.40625 49.246094 219.402344 49.234375 C 219.355469 49.128906 219.3125 49.019531 219.261719 48.910156 C 217.746094 45.632812 216.671875 42.210938 216.074219 38.648438 C 215.929688 37.789062 215.808594 36.925781 215.867188 36.050781 C 215.875 35.855469 215.855469 35.65625 215.847656 35.441406 Z M 200.859375 29.1875 C 200.851562 29.179688 200.84375 29.175781 200.835938 29.167969 C 200.777344 29.214844 200.707031 29.253906 200.660156 29.3125 C 200.4375 29.578125 200.191406 29.828125 200.011719 30.121094 C 198.789062 32.082031 198.152344 34.214844 198.136719 36.527344 C 198.125 38.269531 198.472656 39.953125 199.011719 41.597656 C 199.019531 41.625 199.039062 41.652344 199.070312 41.703125 C 199.089844 41.613281 199.105469 41.554688 199.117188 41.496094 C 199.300781 40.496094 199.496094 39.496094 199.671875 38.496094 C 199.933594 36.988281 200.253906 35.496094 200.726562 34.035156 C 201.113281 32.820312 201.65625 31.671875 202.203125 30.519531 C 202.957031 28.921875 203.777344 27.359375 204.777344 25.898438 C 205.011719 25.558594 205.234375 25.21875 205.472656 24.867188 C 205.441406 24.871094 205.433594 24.867188 205.421875 24.871094 C 205.253906 24.945312 205.089844 25.023438 204.921875 25.097656 C 203.859375 25.578125 203.007812 26.285156 202.4375 27.328125 C 201.132812 29.726562 200.085938 32.234375 199.421875 34.890625 C 199.269531 35.503906 199.171875 36.121094 199.195312 36.757812 C 199.207031 37.1875 199.179688 37.617188 199.171875 38.050781 C 199.167969 38.144531 199.175781 38.25 199.054688 38.292969 C 198.804688 38.382812 198.597656 38.246094 198.582031 37.980469 C 198.519531 36.570312 198.660156 35.191406 199.054688 33.835938 C 199.394531 32.675781 199.875 31.570312 200.335938 30.457031 C 200.511719 30.035156 200.683594 29.613281 200.859375 29.1875 Z M 214.972656 50.882812 C 214.941406 50.824219 214.925781 50.78125 214.902344 50.742188 C 213.640625 48.515625 212.78125 46.136719 212.15625 43.660156 C 211.644531 41.636719 211.296875 39.578125 210.984375 37.515625 C 210.976562 37.464844 210.964844 37.410156 210.953125 37.359375 C 210.378906 37.484375 209.96875 37.894531 209.890625 38.46875 C 209.84375 38.800781 209.839844 39.140625 209.847656 39.476562 C 209.882812 41.039062 210.175781 42.566406 210.535156 44.082031 C 210.820312 45.28125 211.253906 46.433594 211.625 47.609375 C 212.027344 48.890625 212.710938 49.988281 213.597656 50.980469 C 213.636719 51.023438 213.722656 51.058594 213.78125 51.050781 C 214.167969 51.003906 214.558594 50.941406 214.972656 50.882812 Z M 223.28125 32.722656 C 223.265625 32.691406 223.257812 32.675781 223.25 32.667969 C 223.214844 32.644531 223.179688 32.621094 223.148438 32.601562 C 222.425781 32.175781 221.636719 31.964844 220.808594 31.890625 C 219.296875 31.753906 217.789062 31.820312 216.28125 31.96875 C 214.511719 32.148438 212.773438 32.527344 211.0625 32.996094 C 210.464844 33.160156 209.875 33.335938 209.296875 33.550781 C 208.742188 33.753906 208.335938 34.140625 208.121094 34.707031 C 208 35.035156 207.964844 35.375 208 35.738281 C 208.699219 35.5 209.371094 35.269531 210.046875 35.035156 C 212.179688 34.296875 214.347656 33.691406 216.582031 33.316406 C 218.382812 33.011719 220.199219 32.902344 222.019531 32.800781 C 222.4375 32.777344 222.851562 32.75 223.28125 32.722656 Z M 209.089844 32.707031 C 209.410156 32.757812 209.703125 32.765625 210 32.675781 C 210.75 32.445312 211.492188 32.191406 212.253906 31.996094 C 215.3125 31.210938 218.425781 31.027344 221.566406 31.292969 C 221.890625 31.320312 222.214844 31.34375 222.546875 31.371094 C 222.515625 30.9375 222.257812 30.71875 221.890625 30.59375 C 220.554688 30.128906 219.171875 29.917969 217.757812 29.914062 C 216.179688 29.914062 214.605469 30.050781 213.039062 30.214844 C 212.113281 30.3125 211.214844 30.515625 210.371094 30.910156 C 209.605469 31.257812 209.167969 31.84375 209.089844 32.707031 Z M 222.355469 29.933594 C 222.238281 29.1875 221.980469 28.90625 221.273438 28.726562 C 221.269531 28.726562 221.261719 28.726562 221.257812 28.722656 C 221.132812 28.667969 220.996094 28.628906 220.886719 28.550781 C 220.304688 28.128906 219.660156 27.863281 218.945312 27.78125 C 217.824219 27.652344 216.699219 27.59375 215.570312 27.625 C 214.453125 27.660156 213.351562 27.808594 212.28125 28.148438 C 211.75 28.324219 211.273438 28.585938 210.929688 29.050781 C 210.703125 29.363281 210.539062 29.703125 210.417969 30.09375 C 210.503906 30.074219 210.570312 30.066406 210.632812 30.050781 C 212.3125 29.707031 214 29.398438 215.714844 29.265625 C 217.496094 29.132812 219.265625 29.1875 221.011719 29.585938 C 221.460938 29.691406 221.898438 29.816406 222.355469 29.933594 Z M 212.785156 51.242188 C 212.753906 51.191406 212.734375 51.152344 212.710938 51.113281 C 211.4375 49.101562 210.558594 46.917969 209.96875 44.613281 C 209.488281 42.726562 209.207031 40.804688 209.011719 38.863281 C 209.003906 38.800781 208.996094 38.738281 208.984375 38.65625 C 208.734375 38.863281 208.503906 39.046875 208.285156 39.25 C 208.226562 39.300781 208.179688 39.402344 208.175781 39.480469 C 208.171875 39.871094 208.191406 40.265625 208.191406 40.660156 C 208.1875 41.90625 208.28125 43.140625 208.621094 44.351562 C 208.910156 45.371094 209.136719 46.402344 209.570312 47.375 C 210.109375 48.589844 210.839844 49.695312 211.523438 50.828125 C 211.796875 51.28125 212.292969 51.414062 212.785156 51.242188 Z M 207.296875 40.425781 C 207.242188 40.488281 207.179688 40.546875 207.128906 40.617188 C 206.824219 41.027344 206.714844 41.488281 206.746094 41.988281 C 206.777344 42.457031 206.816406 42.917969 206.847656 43.382812 C 206.925781 44.476562 207.019531 45.566406 207.292969 46.632812 C 207.566406 47.699219 207.910156 48.746094 208.527344 49.671875 C 208.90625 50.234375 209.351562 50.753906 209.769531 51.289062 C 209.800781 51.328125 209.875 51.351562 209.929688 51.355469 C 210.230469 51.382812 210.527344 51.402344 210.832031 51.421875 C 210.867188 51.421875 210.90625 51.417969 210.957031 51.414062 C 210.921875 51.355469 210.894531 51.308594 210.871094 51.269531 C 210.449219 50.558594 210.019531 49.847656 209.605469 49.128906 C 209.128906 48.292969 208.730469 47.421875 208.507812 46.480469 C 208.339844 45.773438 208.164062 45.066406 207.957031 44.371094 C 207.574219 43.089844 207.144531 41.8125 207.296875 40.425781 Z M 213.355469 34.84375 C 213.234375 34.871094 213.109375 34.898438 212.984375 34.925781 C 211.148438 35.34375 209.371094 35.9375 207.691406 36.800781 C 207.566406 36.863281 207.5 36.953125 207.46875 37.085938 C 207.351562 37.582031 207.230469 38.070312 207.113281 38.5625 C 207.097656 38.621094 207.089844 38.679688 207.078125 38.738281 C 208.089844 38.015625 209.078125 37.28125 210.09375 36.585938 C 211.117188 35.886719 212.199219 35.304688 213.355469 34.84375 Z M 205.722656 42.335938 C 205.699219 42.339844 205.679688 42.34375 205.65625 42.34375 C 205.640625 42.503906 205.621094 42.65625 205.609375 42.816406 C 205.503906 44.484375 205.746094 46.109375 206.191406 47.710938 C 206.4375 48.597656 206.746094 49.457031 207.257812 50.230469 C 207.375 50.410156 207.527344 50.570312 207.660156 50.742188 C 207.6875 50.730469 207.710938 50.71875 207.734375 50.703125 C 206.679688 48.007812 206.007812 45.21875 205.722656 42.335938 Z M 212.699219 27.207031 C 214.992188 26.910156 217.28125 26.6875 219.625 27.105469 C 219.570312 27.039062 219.550781 27.011719 219.527344 26.984375 C 219.171875 26.585938 218.714844 26.382812 218.195312 26.351562 C 217.609375 26.320312 217.019531 26.304688 216.4375 26.308594 C 215.578125 26.308594 214.734375 26.414062 213.910156 26.664062 C 213.488281 26.796875 213.078125 26.960938 212.699219 27.207031 Z M 224.851562 34.996094 C 224.796875 34.785156 224.75 34.609375 224.699219 34.429688 C 224.5625 33.914062 224.675781 33.910156 224.007812 33.800781 C 222.03125 33.480469 220.066406 33.574219 218.105469 33.898438 C 218.078125 33.902344 218.050781 33.921875 218.027344 33.9375 C 220.375 33.800781 222.65625 34.027344 224.851562 34.996094 Z M 211.421875 26.609375 C 211.445312 26.613281 211.472656 26.621094 211.496094 26.625 C 212.5 25.640625 213.59375 24.769531 214.824219 24.089844 C 214.742188 23.839844 214.71875 23.820312 214.5 23.890625 C 214.285156 23.953125 214.070312 24.023438 213.871094 24.125 C 212.820312 24.675781 212.097656 25.5625 211.457031 26.53125 C 211.445312 26.550781 211.433594 26.582031 211.421875 26.609375 Z M 225.027344 40.515625 C 225.242188 39.351562 225.382812 38.195312 224.957031 37.046875 C 224.894531 38.207031 224.914062 39.359375 225.027344 40.515625 Z M 217.488281 25.644531 C 217.34375 25.328125 217.039062 25.136719 216.722656 25.171875 C 216.355469 25.214844 216.0625 25.4375 215.75 25.613281 C 216.324219 25.625 216.902344 25.636719 217.488281 25.644531 Z M 205.988281 39.332031 C 206.078125 38.78125 206.164062 38.25 206.25 37.707031 C 206.175781 37.699219 206.125 37.691406 206.0625 37.679688 C 205.964844 38.230469 205.867188 38.765625 205.773438 39.304688 C 205.855469 39.316406 205.914062 39.324219 205.988281 39.332031 Z M 213.289062 23.929688 C 213.417969 23.78125 213.539062 23.644531 213.660156 23.5 C 213.558594 23.421875 213.476562 23.355469 213.378906 23.28125 C 213.261719 23.4375 213.148438 23.582031 213.039062 23.734375 C 213.128906 23.804688 213.199219 23.859375 213.289062 23.929688 Z M 222.734375 31.335938 C 222.949219 31.480469 223.125 31.605469 223.3125 31.71875 C 223.398438 31.773438 223.507812 31.71875 223.507812 31.632812 C 223.507812 31.515625 223.320312 31.308594 223.199219 31.308594 C 223.058594 31.308594 222.917969 31.324219 222.734375 31.335938 Z M 222.734375 31.335938 "/>
<path style=" stroke:none;fill-rule:nonzero;fill:rgb(100%,100%,100%);fill-opacity:1;" d="M 210.105469 52.984375 C 208.996094 52.984375 207.914062 52.738281 206.890625 52.257812 C 206.425781 52.035156 205.871094 51.777344 205.300781 51.535156 C 204.40625 51.15625 203.652344 50.730469 203 50.238281 C 202.875 50.140625 202.746094 50.046875 202.617188 49.949219 L 202.390625 49.777344 L 201.171875 48.542969 L 201.117188 48.457031 C 201.082031 48.40625 201.050781 48.355469 201.011719 48.300781 C 200.917969 48.164062 200.816406 48.035156 200.71875 47.902344 C 200.496094 47.605469 200.269531 47.296875 200.082031 46.960938 C 199.800781 46.464844 199.546875 45.949219 199.296875 45.453125 C 199.148438 45.152344 199 44.851562 198.84375 44.550781 C 198.035156 43 197.460938 41.3125 197.125 39.535156 C 196.882812 38.253906 196.808594 36.949219 196.734375 35.691406 L 196.71875 35.410156 C 196.707031 35.246094 196.746094 35.09375 196.78125 34.96875 C 196.996094 34.238281 197.203125 33.511719 197.425781 32.785156 C 197.917969 31.175781 198.480469 29.898438 199.191406 28.761719 C 199.367188 28.484375 199.554688 28.210938 199.734375 27.941406 C 199.925781 27.660156 200.121094 27.367188 200.300781 27.078125 C 200.980469 25.984375 201.753906 25.125 202.664062 24.445312 C 203.871094 23.546875 205.242188 22.828125 206.742188 22.320312 C 209.148438 21.503906 211.691406 21.378906 214.300781 21.945312 C 215.445312 22.195312 216.339844 22.554688 217.113281 23.078125 C 218.152344 23.777344 219.203125 24.503906 220.214844 25.199219 C 221.148438 25.839844 221.847656 26.539062 222.347656 27.324219 C 223.042969 28.410156 223.714844 29.488281 224.347656 30.53125 C 224.765625 31.21875 225.175781 31.933594 225.566406 32.660156 C 225.707031 32.917969 225.8125 33.097656 226.003906 33.207031 C 226.367188 33.421875 226.53125 33.925781 226.351562 34.265625 C 226.265625 34.417969 226.246094 34.589844 226.277344 34.8125 L 226.300781 34.980469 C 226.324219 35.160156 226.351562 35.335938 226.363281 35.515625 C 226.40625 35.964844 226.445312 36.410156 226.488281 36.863281 C 226.5625 37.65625 226.632812 38.449219 226.71875 39.242188 C 226.746094 39.527344 226.789062 39.820312 226.832031 40.105469 C 226.910156 39.980469 226.980469 39.859375 227.042969 39.738281 C 227.132812 39.566406 227.210938 39.390625 227.289062 39.214844 C 227.386719 38.996094 227.488281 38.773438 227.605469 38.554688 C 228.210938 37.429688 228.589844 36.355469 228.753906 35.261719 C 228.914062 34.195312 229.070312 33.128906 229.226562 32.058594 C 229.3125 31.453125 229.402344 30.847656 229.492188 30.238281 C 229.644531 29.230469 229.78125 28.144531 229.792969 27.050781 C 229.800781 26.046875 229.71875 24.984375 229.519531 23.703125 L 229.433594 23.128906 C 229.214844 21.714844 228.992188 20.25 228.644531 18.847656 C 228.570312 18.554688 228.492188 18.269531 228.414062 17.976562 C 228.332031 18.019531 228.246094 18.0625 228.164062 18.101562 C 227.804688 18.277344 227.429688 18.457031 227.058594 18.625 C 226.773438 18.75 226.480469 18.871094 226.191406 18.984375 C 225.824219 19.132812 225.441406 19.289062 225.078125 19.460938 C 223.695312 20.117188 222.167969 20.410156 220.539062 20.332031 C 219.117188 20.265625 217.710938 19.992188 216.347656 19.726562 L 216.199219 19.695312 C 215.625 19.582031 215.117188 19.296875 214.683594 18.839844 C 214.507812 18.652344 214.328125 18.46875 214.148438 18.28125 C 213.878906 18 213.605469 17.714844 213.339844 17.429688 C 213.210938 17.292969 213.113281 17.125 213.058594 16.960938 L 213.046875 16.917969 C 212.878906 16.382812 212.703125 15.828125 212.554688 15.269531 C 212.066406 13.402344 212.351562 11.632812 213.410156 10.007812 C 213.488281 9.890625 213.570312 9.769531 213.652344 9.648438 L 213.808594 9.433594 L 214.53125 8.71875 L 214.726562 8.582031 C 214.871094 8.480469 215.015625 8.378906 215.167969 8.28125 C 216.59375 7.347656 218.222656 6.960938 220.007812 7.136719 C 221.40625 7.273438 222.695312 7.636719 223.847656 8.210938 C 224.363281 8.46875 224.859375 8.839844 225.410156 9.375 C 226.75 10.683594 227.6875 11.90625 228.351562 13.214844 C 228.511719 13.527344 228.648438 13.847656 228.777344 14.15625 C 228.835938 14.289062 228.894531 14.429688 228.953125 14.5625 L 229.359375 15.484375 C 229.382812 15.460938 229.40625 15.433594 229.425781 15.410156 C 229.558594 15.242188 229.691406 15.078125 229.824219 14.910156 C 230.324219 14.28125 230.84375 13.628906 231.3125 12.964844 C 232.320312 11.53125 233.011719 9.953125 233.363281 8.277344 C 233.378906 8.203125 233.398438 8.125 233.421875 8.050781 C 233.566406 7.597656 233.871094 7.371094 234.34375 7.359375 C 234.410156 7.355469 234.480469 7.359375 234.550781 7.363281 L 234.90625 7.378906 L 234.980469 7.636719 C 235.078125 7.980469 235.097656 8.339844 235.035156 8.714844 C 235 8.914062 234.960938 9.121094 234.882812 9.324219 C 234.804688 9.535156 234.726562 9.746094 234.644531 9.960938 C 234.378906 10.664062 234.109375 11.390625 233.800781 12.09375 C 233.28125 13.292969 232.519531 14.433594 231.472656 15.582031 C 230.929688 16.179688 230.414062 16.660156 229.898438 17.0625 C 229.824219 17.121094 229.761719 17.191406 229.8125 17.414062 C 229.976562 18.144531 230.136719 18.875 230.296875 19.601562 L 230.46875 20.367188 C 230.851562 22.105469 231.246094 23.902344 231.523438 25.703125 C 231.707031 26.914062 231.792969 27.925781 231.792969 28.875 C 231.792969 29.953125 231.675781 31.054688 231.445312 32.152344 C 231.148438 33.5625 230.917969 34.710938 230.726562 35.765625 C 230.53125 36.828125 230.148438 37.8125 229.554688 38.773438 C 228.652344 40.234375 227.742188 41.730469 226.867188 43.171875 C 226.464844 43.832031 226.066406 44.492188 225.660156 45.152344 C 225.089844 46.085938 224.53125 46.875 223.949219 47.558594 C 223.9375 47.582031 223.933594 47.59375 223.925781 47.605469 L 223.898438 47.65625 L 222.921875 48.617188 C 222.902344 48.628906 222.882812 48.640625 222.867188 48.652344 C 222.855469 48.65625 222.847656 48.660156 222.839844 48.667969 C 222.203125 49.210938 221.5625 49.640625 220.882812 49.964844 L 220.746094 50.027344 C 220.492188 50.148438 220.246094 50.265625 220.023438 50.402344 C 218.894531 51.113281 217.652344 51.65625 216.332031 52.015625 C 214.652344 52.472656 212.972656 52.710938 210.964844 52.933594 C 210.679688 52.96875 210.390625 52.984375 210.105469 52.984375 Z M 202.902344 49.226562 L 203.0625 49.34375 C 203.195312 49.441406 203.324219 49.539062 203.453125 49.636719 C 204.054688 50.089844 204.753906 50.488281 205.59375 50.84375 C 206.175781 51.089844 206.738281 51.351562 207.210938 51.574219 C 208.371094 52.125 209.605469 52.332031 210.886719 52.1875 C 212.859375 51.96875 214.507812 51.734375 216.136719 51.289062 C 217.386719 50.953125 218.5625 50.4375 219.625 49.769531 C 219.886719 49.601562 220.164062 49.472656 220.429688 49.347656 L 220.5625 49.285156 C 221.179688 48.988281 221.769531 48.597656 222.363281 48.089844 C 222.410156 48.042969 222.464844 48.015625 222.5 47.996094 L 223.289062 47.210938 C 223.304688 47.175781 223.328125 47.132812 223.363281 47.097656 C 223.929688 46.4375 224.472656 45.671875 225.027344 44.761719 C 225.425781 44.101562 225.828125 43.445312 226.230469 42.785156 C 227.109375 41.339844 228.019531 39.84375 228.921875 38.382812 C 229.46875 37.503906 229.816406 36.605469 229.996094 35.632812 C 230.191406 34.570312 230.417969 33.414062 230.71875 31.996094 C 230.9375 30.953125 231.050781 29.902344 231.050781 28.875 C 231.050781 27.964844 230.96875 26.992188 230.789062 25.816406 C 230.554688 24.269531 230.226562 22.710938 229.890625 21.191406 C 229.996094 21.804688 230.085938 22.414062 230.179688 23.019531 L 230.265625 23.589844 C 230.472656 24.910156 230.558594 26.015625 230.550781 27.0625 C 230.539062 28.199219 230.394531 29.3125 230.238281 30.347656 C 230.148438 30.953125 230.0625 31.5625 229.976562 32.167969 C 229.820312 33.238281 229.664062 34.304688 229.5 35.375 C 229.320312 36.554688 228.917969 37.710938 228.269531 38.910156 C 228.167969 39.105469 228.074219 39.308594 227.976562 39.523438 C 227.890625 39.707031 227.808594 39.898438 227.714844 40.078125 C 227.597656 40.300781 227.464844 40.515625 227.335938 40.71875 L 227.25 40.851562 C 227.0625 41.144531 226.9375 41.195312 226.601562 41.214844 L 226.257812 41.234375 L 226.199219 40.894531 C 226.175781 40.734375 226.152344 40.574219 226.128906 40.417969 C 226.074219 40.058594 226.011719 39.691406 225.976562 39.320312 C 225.890625 38.523438 225.820312 37.730469 225.746094 36.933594 C 225.703125 36.484375 225.664062 36.035156 225.621094 35.589844 C 225.609375 35.421875 225.582031 35.253906 225.558594 35.085938 L 225.539062 34.917969 C 225.488281 34.546875 225.535156 34.226562 225.679688 33.941406 C 225.675781 33.914062 225.65625 33.875 225.628906 33.859375 C 225.242188 33.632812 225.054688 33.28125 224.914062 33.019531 C 224.527344 32.304688 224.125 31.597656 223.714844 30.921875 C 223.085938 29.886719 222.414062 28.8125 221.726562 27.730469 C 221.277344 27.027344 220.648438 26.402344 219.796875 25.816406 C 218.785156 25.117188 217.738281 24.398438 216.703125 23.699219 C 216.007812 23.230469 215.199219 22.90625 214.148438 22.675781 C 211.671875 22.140625 209.265625 22.257812 206.992188 23.03125 C 205.566406 23.511719 204.261719 24.191406 203.117188 25.046875 C 202.285156 25.667969 201.574219 26.460938 200.949219 27.472656 C 200.757812 27.777344 200.558594 28.078125 200.359375 28.367188 C 200.183594 28.625 200 28.894531 199.832031 29.164062 C 199.152344 30.238281 198.621094 31.460938 198.148438 33.003906 C 197.929688 33.726562 197.71875 34.453125 197.507812 35.175781 C 197.496094 35.210938 197.46875 35.308594 197.472656 35.363281 L 197.488281 35.644531 C 197.5625 36.878906 197.636719 38.160156 197.871094 39.390625 C 198.191406 41.097656 198.742188 42.71875 199.519531 44.199219 C 199.675781 44.503906 199.828125 44.808594 199.980469 45.113281 C 200.226562 45.601562 200.476562 46.109375 200.746094 46.589844 C 200.910156 46.882812 201.113281 47.15625 201.328125 47.445312 C 201.433594 47.582031 201.535156 47.71875 201.632812 47.859375 C 201.675781 47.921875 201.71875 47.984375 201.757812 48.046875 L 201.785156 48.09375 Z M 214.355469 9.945312 L 214.265625 10.078125 C 214.183594 10.195312 214.105469 10.308594 214.03125 10.425781 C 213.09375 11.863281 212.835938 13.429688 213.273438 15.082031 C 213.414062 15.625 213.585938 16.171875 213.753906 16.699219 L 213.765625 16.742188 C 213.785156 16.800781 213.828125 16.867188 213.878906 16.921875 C 214.144531 17.203125 214.414062 17.484375 214.679688 17.765625 C 214.863281 17.953125 215.042969 18.140625 215.222656 18.328125 C 215.542969 18.667969 215.917969 18.882812 216.332031 18.960938 L 216.484375 18.992188 C 216.957031 19.085938 217.4375 19.175781 217.921875 19.261719 C 216.8125 18.917969 215.886719 18.402344 215.105469 17.695312 C 214.523438 17.167969 213.722656 16.324219 213.503906 15.097656 C 213.179688 13.304688 213.710938 11.761719 215.082031 10.511719 C 215.101562 10.496094 215.121094 10.480469 215.140625 10.460938 L 215.101562 10.414062 L 215.390625 10.175781 C 215.554688 10.042969 215.71875 9.902344 215.882812 9.761719 C 216.25 9.445312 216.628906 9.117188 217.046875 8.835938 C 218.191406 8.058594 219.535156 7.847656 221.027344 8.210938 C 222.132812 8.476562 223.179688 8.984375 224.148438 9.722656 C 224.707031 10.148438 225.191406 10.546875 225.628906 10.933594 C 226.289062 11.523438 226.835938 12.292969 227.347656 13.355469 C 227.625 13.933594 227.898438 14.515625 228.171875 15.097656 L 228.535156 15.863281 C 228.546875 15.894531 228.5625 15.925781 228.574219 15.960938 C 228.800781 16.476562 228.753906 16.847656 228.410156 17.148438 C 228.4375 17.140625 228.460938 17.132812 228.488281 17.121094 L 228.914062 16.972656 L 229.109375 17.691406 C 229.101562 17.65625 229.09375 17.613281 229.085938 17.578125 C 228.953125 16.992188 229.207031 16.652344 229.441406 16.46875 C 229.925781 16.09375 230.410156 15.636719 230.921875 15.074219 C 231.910156 13.984375 232.632812 12.910156 233.117188 11.789062 C 233.414062 11.101562 233.683594 10.382812 233.949219 9.691406 C 234.027344 9.476562 234.109375 9.265625 234.191406 9.054688 C 234.246094 8.90625 234.273438 8.738281 234.300781 8.589844 C 234.328125 8.421875 234.332031 8.261719 234.316406 8.109375 C 234.203125 8.117188 234.183594 8.144531 234.140625 8.277344 C 234.121094 8.328125 234.113281 8.378906 234.101562 8.433594 C 233.726562 10.210938 232.992188 11.875 231.925781 13.394531 C 231.445312 14.078125 230.917969 14.738281 230.410156 15.375 C 230.277344 15.542969 230.148438 15.707031 230.015625 15.871094 C 229.898438 16.019531 229.769531 16.128906 229.636719 16.234375 C 229.585938 16.277344 229.535156 16.320312 229.484375 16.367188 L 229.160156 16.660156 L 228.902344 16.261719 C 228.871094 16.214844 228.851562 16.183594 228.839844 16.152344 L 228.269531 14.863281 C 228.207031 14.726562 228.152344 14.585938 228.089844 14.445312 C 227.957031 14.136719 227.832031 13.839844 227.6875 13.554688 C 227.058594 12.316406 226.167969 11.160156 224.886719 9.910156 C 224.394531 9.429688 223.957031 9.101562 223.515625 8.878906 C 222.445312 8.34375 221.242188 8.007812 219.9375 7.882812 C 218.328125 7.722656 216.859375 8.070312 215.578125 8.90625 C 215.4375 9 215.296875 9.097656 215.160156 9.195312 L 214.988281 9.3125 Z M 216.15625 10.515625 L 216.179688 10.546875 L 215.800781 10.878906 C 215.726562 10.941406 215.660156 11.003906 215.589844 11.070312 C 214.402344 12.148438 213.960938 13.425781 214.238281 14.96875 C 214.375 15.738281 214.800781 16.410156 215.609375 17.140625 C 216.402344 17.855469 217.371094 18.355469 218.5625 18.664062 C 219.5 18.90625 220.480469 18.988281 221.558594 18.914062 C 221.632812 18.910156 221.707031 18.90625 221.78125 18.902344 C 221.984375 18.890625 222.175781 18.882812 222.347656 18.839844 C 224.175781 18.386719 225.988281 17.671875 227.730469 16.707031 C 228.011719 16.554688 228.011719 16.546875 227.886719 16.261719 C 227.875 16.234375 227.863281 16.214844 227.855469 16.1875 L 227.492188 15.417969 C 227.222656 14.839844 226.949219 14.257812 226.671875 13.683594 C 226.203125 12.714844 225.714844 12.019531 225.128906 11.5 C 224.707031 11.121094 224.238281 10.738281 223.695312 10.320312 C 222.808594 9.648438 221.851562 9.183594 220.851562 8.941406 C 219.550781 8.625 218.445312 8.796875 217.464844 9.460938 C 217.085938 9.71875 216.738281 10.015625 216.371094 10.335938 C 216.296875 10.394531 216.226562 10.457031 216.15625 10.515625 Z M 210.855469 51.796875 C 210.839844 51.796875 210.824219 51.796875 210.804688 51.796875 L 210.671875 51.785156 C 210.414062 51.769531 210.15625 51.75 209.898438 51.726562 C 209.816406 51.722656 209.605469 51.6875 209.476562 51.519531 C 209.363281 51.378906 209.253906 51.238281 209.140625 51.097656 C 208.828125 50.710938 208.503906 50.308594 208.21875 49.878906 C 207.535156 48.851562 207.183594 47.707031 206.933594 46.726562 C 206.652344 45.621094 206.554688 44.480469 206.480469 43.410156 C 206.464844 43.207031 206.449219 43.011719 206.433594 42.8125 C 206.414062 42.546875 206.394531 42.28125 206.375 42.015625 C 206.335938 41.394531 206.488281 40.851562 206.832031 40.390625 C 206.875 40.335938 206.921875 40.28125 206.972656 40.230469 L 207.023438 40.175781 L 207.804688 39.296875 L 207.675781 40.46875 C 207.574219 41.382812 207.742188 42.246094 207.984375 43.125 C 207.875 42.382812 207.820312 41.578125 207.824219 40.660156 C 207.824219 40.480469 207.816406 40.300781 207.816406 40.121094 C 207.8125 39.902344 207.804688 39.6875 207.808594 39.476562 C 207.8125 39.296875 207.902344 39.097656 208.039062 38.972656 C 208.203125 38.824219 208.371094 38.683594 208.550781 38.539062 L 209.273438 37.933594 L 209.375 38.6875 C 209.382812 38.738281 209.390625 38.789062 209.390625 38.832031 C 209.417969 39.117188 209.449219 39.394531 209.480469 39.667969 C 209.480469 39.609375 209.476562 39.546875 209.476562 39.484375 C 209.46875 39.191406 209.46875 38.804688 209.523438 38.417969 C 209.621094 37.699219 210.140625 37.152344 210.878906 36.992188 L 211.257812 36.910156 L 211.335938 37.339844 C 211.34375 37.378906 211.351562 37.417969 211.359375 37.457031 C 211.402344 37.757812 211.449219 38.0625 211.5 38.371094 C 211.488281 38.070312 211.484375 37.761719 211.488281 37.441406 C 211.492188 37.296875 211.511719 37.160156 211.535156 37.050781 C 211.578125 36.792969 211.722656 36.578125 211.949219 36.421875 C 212.277344 36.195312 213.160156 36.019531 213.554688 36.101562 L 213.84375 36.160156 L 213.851562 36.460938 C 213.855469 36.511719 213.855469 36.5625 213.859375 36.617188 C 213.863281 36.742188 213.871094 36.871094 213.867188 37.003906 C 213.84375 37.535156 213.898438 38.101562 214.023438 38.746094 L 214.058594 38.914062 L 214.03125 38.777344 C 213.941406 38.25 213.84375 37.703125 213.917969 37.132812 C 213.96875 36.761719 214.050781 36.398438 214.132812 36.046875 L 214.183594 35.824219 C 214.222656 35.648438 214.371094 35.4375 214.582031 35.378906 C 214.875 35.300781 215.167969 35.226562 215.46875 35.152344 L 216.210938 34.96875 L 216.222656 35.433594 C 216.226562 35.5 216.226562 35.5625 216.230469 35.625 C 216.238281 35.773438 216.246094 35.921875 216.234375 36.082031 C 216.203125 36.566406 216.230469 37.054688 216.28125 37.527344 C 216.242188 36.730469 216.386719 35.972656 216.542969 35.324219 C 216.589844 35.128906 216.773438 34.941406 216.972656 34.898438 C 217.335938 34.8125 217.699219 34.738281 218.078125 34.660156 L 218.890625 34.492188 L 218.878906 35.171875 C 218.875 35.324219 218.875 35.46875 218.867188 35.613281 C 218.851562 35.886719 218.847656 36.164062 218.855469 36.4375 C 218.898438 35.964844 219.011719 35.519531 219.203125 35.09375 C 219.304688 34.863281 219.480469 34.726562 219.714844 34.683594 C 220.890625 34.472656 221.914062 34.578125 222.84375 35.003906 C 223.082031 35.109375 223.332031 35.199219 223.566406 35.277344 C 224.109375 35.460938 224.410156 35.859375 224.433594 36.421875 L 224.648438 41.429688 C 224.660156 41.71875 224.675781 41.835938 224.789062 41.925781 L 224.65625 40.550781 C 224.542969 39.394531 224.519531 38.207031 224.585938 37.027344 L 224.679688 35.332031 C 222.746094 34.484375 220.636719 34.160156 218.050781 34.3125 L 216.140625 34.421875 L 217.867188 33.597656 C 217.898438 33.578125 217.960938 33.542969 218.042969 33.53125 C 218.390625 33.472656 218.730469 33.425781 219.066406 33.382812 C 218.261719 33.453125 217.445312 33.550781 216.644531 33.6875 C 215.265625 33.921875 213.84375 34.253906 212.34375 34.695312 C 212.527344 34.648438 212.710938 34.605469 212.898438 34.5625 C 212.984375 34.542969 213.074219 34.523438 213.15625 34.503906 L 213.273438 34.480469 L 213.492188 35.195312 C 212.375 35.640625 211.304688 36.210938 210.308594 36.898438 C 209.605469 37.378906 208.902344 37.886719 208.222656 38.378906 C 207.914062 38.601562 207.605469 38.824219 207.296875 39.046875 L 206.535156 39.589844 L 206.722656 38.617188 C 206.730469 38.570312 206.738281 38.523438 206.75 38.476562 L 206.875 37.964844 C 206.953125 37.644531 207.027344 37.324219 207.105469 37.003906 C 207.160156 36.765625 207.300781 36.585938 207.519531 36.46875 C 207.949219 36.25 208.386719 36.042969 208.839844 35.851562 C 208.824219 35.855469 208.808594 35.863281 208.789062 35.867188 L 207.671875 36.25 L 207.625 35.78125 C 207.582031 35.347656 207.628906 34.953125 207.769531 34.578125 C 208.019531 33.921875 208.5 33.449219 209.167969 33.203125 C 209.238281 33.175781 209.3125 33.148438 209.386719 33.125 C 209.257812 33.117188 209.136719 33.101562 209.03125 33.085938 L 208.683594 33.03125 L 208.714844 32.679688 C 208.800781 31.695312 209.308594 30.988281 210.210938 30.570312 C 210.273438 30.539062 210.335938 30.511719 210.402344 30.484375 L 209.875 30.585938 L 210.058594 29.988281 C 210.191406 29.546875 210.375 29.171875 210.625 28.832031 C 210.980469 28.355469 211.480469 28.015625 212.164062 27.796875 C 212.484375 27.695312 212.808594 27.609375 213.140625 27.535156 C 213.011719 27.550781 212.878906 27.566406 212.746094 27.585938 L 211.148438 27.789062 L 212.496094 26.894531 C 212.855469 26.65625 213.269531 26.46875 213.804688 26.308594 C 214.324219 26.148438 214.863281 26.042969 215.433594 25.984375 L 214.367188 25.964844 L 215.566406 25.285156 C 215.625 25.25 215.6875 25.214844 215.746094 25.179688 C 216.011719 25.023438 216.3125 24.84375 216.683594 24.800781 C 217.160156 24.746094 217.621094 25.023438 217.832031 25.488281 L 218.054688 25.972656 C 218.109375 25.972656 218.164062 25.976562 218.222656 25.980469 C 218.859375 26.015625 219.394531 26.273438 219.8125 26.738281 C 219.832031 26.761719 219.851562 26.78125 219.882812 26.824219 L 220.535156 27.652344 L 219.5625 27.480469 C 218.632812 27.3125 217.71875 27.25 216.796875 27.253906 C 217.511719 27.273438 218.246094 27.328125 218.992188 27.410156 C 219.75 27.5 220.464844 27.78125 221.113281 28.246094 C 221.148438 28.273438 221.210938 28.296875 221.28125 28.324219 C 221.316406 28.339844 221.351562 28.355469 221.386719 28.371094 C 222.226562 28.585938 222.59375 28.996094 222.730469 29.871094 L 222.820312 30.4375 L 222.265625 30.296875 C 222.164062 30.269531 222.066406 30.242188 221.964844 30.214844 C 221.980469 30.21875 222 30.226562 222.019531 30.234375 C 222.433594 30.375 222.707031 30.617188 222.839844 30.949219 L 222.875 30.945312 C 222.992188 30.9375 223.105469 30.929688 223.207031 30.929688 C 223.402344 30.929688 223.5625 31.050781 223.660156 31.152344 C 223.746094 31.238281 223.890625 31.417969 223.886719 31.636719 C 223.882812 31.808594 223.785156 31.96875 223.632812 32.054688 C 223.46875 32.144531 223.273438 32.136719 223.117188 32.035156 C 222.988281 31.953125 222.859375 31.867188 222.71875 31.769531 L 222.6875 31.75 L 222.21875 31.714844 C 222.121094 31.707031 222.023438 31.699219 221.925781 31.691406 C 222.441406 31.824219 222.910156 32.015625 223.34375 32.273438 C 223.390625 32.300781 223.4375 32.332031 223.480469 32.363281 C 223.558594 32.421875 223.59375 32.496094 223.609375 32.527344 L 223.894531 33.046875 L 222.917969 33.121094 C 222.625 33.136719 222.335938 33.15625 222.046875 33.171875 C 221.746094 33.191406 221.433594 33.207031 221.117188 33.226562 C 222.148438 33.203125 223.128906 33.269531 224.074219 33.421875 C 224.683594 33.523438 224.902344 33.585938 225.027344 34.144531 C 225.039062 34.195312 225.050781 34.257812 225.070312 34.328125 L 225.425781 35.648438 L 224.734375 35.34375 L 225.316406 36.914062 C 225.789062 38.175781 225.617188 39.414062 225.402344 40.582031 L 225.125 42.082031 L 225.449219 42.207031 L 225.253906 42.808594 C 225.167969 43.082031 225.078125 43.363281 224.992188 43.636719 L 224.921875 43.851562 C 224.78125 44.285156 224.640625 44.722656 224.496094 45.15625 C 224.472656 45.230469 224.371094 45.488281 224.128906 45.566406 C 223.9375 45.632812 223.699219 45.589844 223.535156 45.375 C 223.554688 45.4375 223.578125 45.5 223.59375 45.558594 C 223.75 46.082031 223.640625 46.554688 223.277344 46.902344 C 223.070312 47.101562 222.851562 47.289062 222.640625 47.46875 C 222.550781 47.546875 222.457031 47.628906 222.363281 47.707031 L 222.015625 48.011719 L 221.792969 47.609375 C 221.734375 47.503906 221.679688 47.402344 221.625 47.300781 C 221.648438 47.351562 221.671875 47.398438 221.691406 47.449219 L 222.007812 48.136719 L 219.851562 49.414062 L 219.796875 49.300781 L 219.828125 49.511719 L 219.5625 49.636719 L 217.671875 50.417969 L 217.511719 50.125 C 217.441406 50.007812 217.371094 49.886719 217.300781 49.765625 C 217.273438 49.71875 217.246094 49.671875 217.21875 49.621094 L 217.363281 50.039062 C 217.378906 50.078125 217.390625 50.117188 217.402344 50.160156 L 217.519531 50.5625 L 216.914062 50.761719 C 216.671875 50.84375 216.414062 50.925781 216.160156 51 C 215.921875 51.066406 215.695312 50.925781 215.59375 50.835938 C 215.425781 50.683594 215.265625 50.519531 215.117188 50.351562 C 215.15625 50.421875 215.195312 50.492188 215.234375 50.558594 C 215.257812 50.59375 215.269531 50.625 215.292969 50.667969 L 215.546875 51.179688 L 214.738281 51.300781 C 214.429688 51.347656 214.132812 51.390625 213.835938 51.429688 C 213.65625 51.449219 213.453125 51.371094 213.328125 51.234375 C 213.207031 51.097656 213.09375 50.960938 212.984375 50.828125 C 213 50.855469 213.019531 50.886719 213.039062 50.914062 C 213.058594 50.945312 213.074219 50.976562 213.09375 51.011719 L 213.34375 51.449219 L 212.921875 51.597656 C 212.238281 51.839844 211.570312 51.613281 211.214844 51.023438 C 211.082031 50.800781 210.945312 50.578125 210.808594 50.355469 C 210.277344 49.492188 209.730469 48.601562 209.300781 47.652344 C 209.472656 48.066406 209.6875 48.492188 209.945312 48.945312 C 210.230469 49.4375 210.523438 49.925781 210.8125 50.410156 C 210.945312 50.632812 211.078125 50.855469 211.207031 51.078125 L 211.601562 51.769531 L 210.945312 51.792969 C 210.902344 51.796875 210.878906 51.796875 210.855469 51.796875 Z M 210.007812 50.984375 C 210.097656 50.992188 210.1875 51 210.277344 51.007812 C 210.238281 50.9375 210.195312 50.867188 210.15625 50.800781 C 209.863281 50.308594 209.566406 49.816406 209.28125 49.320312 C 208.714844 48.332031 208.351562 47.457031 208.144531 46.566406 C 207.996094 45.941406 207.816406 45.203125 207.601562 44.480469 L 207.511719 44.179688 C 207.40625 43.835938 207.300781 43.488281 207.207031 43.132812 C 207.214844 43.207031 207.21875 43.28125 207.222656 43.355469 C 207.296875 44.394531 207.390625 45.496094 207.660156 46.542969 C 207.894531 47.460938 208.214844 48.527344 208.839844 49.460938 C 209.109375 49.859375 209.417969 50.25 209.722656 50.625 C 209.816406 50.746094 209.914062 50.863281 210.007812 50.984375 Z M 208.554688 39.511719 C 208.550781 39.707031 208.554688 39.902344 208.558594 40.097656 C 208.566406 40.285156 208.566406 40.472656 208.566406 40.65625 C 208.566406 42.074219 208.699219 43.214844 208.988281 44.246094 C 209.050781 44.46875 209.113281 44.699219 209.171875 44.925781 C 209.386719 45.730469 209.589844 46.492188 209.914062 47.21875 C 210.335938 48.167969 210.894531 49.078125 211.433594 49.957031 C 211.570312 50.179688 211.707031 50.402344 211.847656 50.628906 C 211.929688 50.765625 212.03125 50.847656 212.136719 50.890625 C 211.027344 49.039062 210.195312 47.011719 209.605469 44.703125 C 209.207031 43.140625 208.914062 41.441406 208.691406 39.386719 C 208.644531 39.429688 208.597656 39.472656 208.554688 39.511719 Z M 210.660156 37.878906 C 210.441406 38.023438 210.300781 38.246094 210.261719 38.515625 C 210.214844 38.851562 210.214844 39.199219 210.222656 39.464844 C 210.257812 41.085938 210.585938 42.664062 210.898438 43.992188 C 211.09375 44.820312 211.371094 45.648438 211.636719 46.449219 C 211.753906 46.800781 211.871094 47.144531 211.980469 47.496094 C 212.339844 48.632812 212.941406 49.671875 213.820312 50.667969 C 214.007812 50.644531 214.195312 50.617188 214.386719 50.589844 C 213.296875 48.585938 212.445312 46.34375 211.789062 43.753906 C 211.296875 41.785156 210.953125 39.773438 210.660156 37.878906 Z M 213.113281 36.84375 C 212.835938 36.875 212.476562 36.964844 212.367188 37.039062 C 212.289062 37.089844 212.273438 37.136719 212.265625 37.175781 C 212.25 37.269531 212.234375 37.367188 212.234375 37.449219 C 212.21875 38.75 212.339844 39.859375 212.605469 40.847656 C 213.144531 42.859375 213.753906 45.042969 214.507812 47.726562 C 214.777344 48.6875 215.296875 49.53125 216.054688 50.242188 C 216.226562 50.195312 216.398438 50.136719 216.574219 50.078125 L 216.386719 49.542969 C 216.261719 49.1875 216.136719 48.832031 216.011719 48.480469 C 215.875 48.082031 215.734375 47.691406 215.597656 47.292969 C 215.265625 46.359375 214.925781 45.394531 214.605469 44.4375 C 214.042969 42.734375 213.691406 40.957031 213.351562 39.242188 L 213.28125 38.890625 C 213.140625 38.1875 213.085938 37.5625 213.109375 36.972656 C 213.113281 36.929688 213.113281 36.886719 213.113281 36.84375 Z M 214.890625 36.070312 L 214.859375 36.210938 C 214.777344 36.5625 214.703125 36.890625 214.660156 37.226562 C 214.597656 37.683594 214.679688 38.152344 214.765625 38.640625 L 214.792969 38.789062 C 215.222656 41.296875 215.816406 43.707031 216.554688 45.957031 C 216.824219 46.78125 217.144531 47.648438 217.53125 48.605469 C 217.636719 48.867188 217.78125 49.113281 217.9375 49.378906 C 217.953125 49.410156 217.972656 49.4375 217.988281 49.46875 L 218.921875 49.082031 C 218.917969 49.078125 218.917969 49.074219 218.917969 49.070312 C 217.375 45.734375 216.292969 42.25 215.699219 38.710938 C 215.5625 37.910156 215.425781 36.976562 215.484375 36.027344 C 215.488281 35.992188 215.488281 35.953125 215.488281 35.917969 C 215.289062 35.964844 215.089844 36.011719 214.890625 36.070312 Z M 217.25 35.601562 C 217.101562 36.253906 216.96875 37.011719 217.058594 37.765625 C 217.453125 41.132812 218.394531 44.4375 219.941406 47.878906 C 220.011719 48.035156 220.085938 48.191406 220.164062 48.347656 L 221.039062 47.832031 L 221.003906 47.761719 C 220.878906 47.484375 220.75 47.210938 220.628906 46.933594 C 220.179688 45.90625 219.863281 44.828125 219.558594 43.785156 L 219.464844 43.460938 C 219.035156 42 218.597656 40.492188 218.367188 38.945312 C 218.199219 37.820312 218.058594 36.71875 218.121094 35.566406 C 218.125 35.519531 218.128906 35.46875 218.128906 35.417969 C 217.828125 35.476562 217.539062 35.539062 217.25 35.601562 Z M 219.882812 35.414062 C 219.640625 35.964844 219.550781 36.542969 219.605469 37.191406 C 219.8125 39.703125 220.328125 42.105469 221.144531 44.328125 C 221.507812 45.324219 221.847656 46.117188 222.222656 46.835938 C 222.410156 46.679688 222.585938 46.523438 222.753906 46.363281 C 222.859375 46.261719 222.96875 46.101562 222.871094 45.777344 C 222.835938 45.664062 222.792969 45.542969 222.746094 45.417969 C 222.230469 44.144531 221.863281 42.957031 221.621094 41.785156 C 221.566406 41.519531 221.511719 41.253906 221.453125 40.984375 C 221.328125 40.355469 221.191406 39.707031 221.050781 39.074219 C 220.785156 37.910156 220.75 36.820312 220.9375 35.742188 C 220.964844 35.582031 221.035156 35.449219 221.105469 35.332031 C 220.71875 35.3125 220.3125 35.339844 219.882812 35.414062 Z M 212.214844 42.273438 C 212.308594 42.707031 212.410156 43.140625 212.519531 43.570312 C 212.761719 44.53125 213.03125 45.441406 213.332031 46.308594 C 212.917969 44.835938 212.554688 43.515625 212.214844 42.273438 Z M 222.5 35.667969 C 222.503906 35.730469 222.503906 35.792969 222.496094 35.859375 C 222.488281 35.941406 222.472656 36.019531 222.453125 36.101562 C 222.257812 36.929688 222.238281 37.722656 222.382812 38.476562 C 222.507812 39.148438 222.671875 39.828125 222.824219 40.46875 L 222.921875 40.875 C 223.152344 41.84375 223.394531 42.847656 223.660156 43.820312 C 223.71875 44.042969 223.816406 44.261719 223.921875 44.488281 C 224.019531 44.199219 224.109375 43.914062 224.203125 43.628906 L 224.273438 43.410156 C 224.355469 43.152344 224.4375 42.894531 224.519531 42.636719 C 224.082031 42.398438 223.929688 42.085938 223.902344 41.46875 L 223.6875 36.453125 C 223.679688 36.203125 223.578125 36.074219 223.328125 35.992188 C 223.074219 35.90625 222.804688 35.808594 222.535156 35.6875 C 222.523438 35.679688 222.507812 35.671875 222.5 35.667969 Z M 207.839844 37.148438 C 207.839844 37.148438 207.839844 37.15625 207.832031 37.175781 C 207.78125 37.402344 207.726562 37.628906 207.671875 37.855469 C 207.707031 37.828125 207.75 37.796875 207.785156 37.769531 C 208.46875 37.277344 209.175781 36.765625 209.882812 36.277344 C 209.925781 36.25 209.96875 36.222656 210.007812 36.195312 C 209.257812 36.472656 208.546875 36.785156 207.867188 37.136719 C 207.847656 37.144531 207.84375 37.148438 207.839844 37.148438 Z M 221.75 35.710938 C 221.710938 35.773438 221.679688 35.832031 221.671875 35.875 C 221.617188 36.1875 221.582031 36.507812 221.570312 36.828125 C 221.601562 36.535156 221.648438 36.242188 221.71875 35.945312 C 221.730469 35.882812 221.746094 35.832031 221.75 35.78125 C 221.753906 35.742188 221.753906 35.722656 221.75 35.710938 Z M 214.777344 36.097656 Z M 214.910156 35.984375 L 214.910156 35.988281 C 214.910156 35.988281 214.910156 35.984375 214.910156 35.984375 Z M 219.089844 32.191406 C 218.246094 32.191406 217.335938 32.242188 216.324219 32.347656 C 214.75 32.503906 213.109375 32.828125 211.164062 33.359375 C 210.46875 33.550781 209.917969 33.722656 209.429688 33.902344 C 208.96875 34.074219 208.648438 34.390625 208.476562 34.839844 C 208.433594 34.960938 208.398438 35.085938 208.382812 35.210938 L 208.550781 35.15625 C 209.011719 34.996094 209.46875 34.839844 209.925781 34.683594 C 212.289062 33.863281 214.449219 33.292969 216.519531 32.945312 C 218.3125 32.644531 220.152344 32.535156 221.792969 32.441406 C 221.476562 32.355469 221.140625 32.296875 220.777344 32.265625 C 220.234375 32.214844 219.679688 32.191406 219.089844 32.191406 Z M 223.53125 34.109375 C 223.792969 34.1875 224.046875 34.273438 224.300781 34.367188 C 224.296875 34.351562 224.292969 34.332031 224.289062 34.316406 C 224.285156 34.289062 224.277344 34.257812 224.269531 34.234375 C 224.1875 34.214844 224.039062 34.1875 223.945312 34.171875 C 223.808594 34.148438 223.671875 34.128906 223.53125 34.109375 Z M 223.027344 32.972656 Z M 217.746094 30.289062 C 216.15625 30.289062 214.5625 30.429688 213.074219 30.585938 C 212.101562 30.6875 211.265625 30.902344 210.523438 31.246094 C 209.988281 31.496094 209.660156 31.859375 209.527344 32.371094 C 209.660156 32.371094 209.777344 32.351562 209.890625 32.316406 C 210.070312 32.257812 210.257812 32.199219 210.4375 32.140625 C 211 31.964844 211.578125 31.777344 212.160156 31.628906 C 215.140625 30.863281 218.226562 30.632812 221.601562 30.917969 C 221.640625 30.917969 221.683594 30.925781 221.726562 30.925781 C 220.484375 30.5 219.148438 30.285156 217.757812 30.285156 C 217.753906 30.289062 217.75 30.289062 217.746094 30.289062 Z M 216.171875 27.996094 C 215.972656 27.996094 215.773438 27.996094 215.574219 28.003906 C 214.382812 28.039062 213.34375 28.203125 212.394531 28.507812 C 211.859375 28.679688 211.488281 28.921875 211.230469 29.277344 C 211.15625 29.375 211.089844 29.480469 211.027344 29.589844 C 212.503906 29.292969 214.074219 29.019531 215.679688 28.894531 C 217.6875 28.742188 219.457031 28.851562 221.09375 29.222656 C 221.320312 29.273438 221.550781 29.332031 221.773438 29.390625 C 221.65625 29.246094 221.476562 29.167969 221.175781 29.09375 L 221.101562 29.070312 C 221.066406 29.054688 221.03125 29.039062 220.996094 29.027344 C 220.894531 28.984375 220.777344 28.941406 220.664062 28.859375 C 220.117188 28.460938 219.539062 28.234375 218.898438 28.15625 C 217.96875 28.050781 217.050781 27.996094 216.171875 27.996094 Z M 207.5625 51.214844 L 207.371094 50.976562 C 207.332031 50.921875 207.289062 50.871094 207.246094 50.820312 C 207.144531 50.703125 207.042969 50.578125 206.945312 50.433594 C 206.730469 50.109375 206.550781 49.769531 206.402344 49.433594 C 206.410156 49.457031 206.417969 49.480469 206.429688 49.503906 C 206.546875 49.8125 206.597656 50.132812 206.585938 50.515625 L 206.570312 51.15625 L 203.828125 49.519531 C 203.566406 49.449219 203.351562 49.324219 203.179688 49.136719 C 202.730469 48.65625 202.277344 48.171875 201.828125 47.691406 C 201.730469 47.59375 201.632812 47.492188 201.539062 47.394531 C 201.222656 47.070312 201.402344 46.769531 201.464844 46.683594 C 201.660156 46.414062 201.664062 46.15625 201.472656 45.847656 C 201.226562 45.457031 201.199219 45.039062 201.175781 44.667969 L 201.167969 44.582031 C 201.164062 44.523438 201.164062 44.464844 201.160156 44.40625 C 201.132812 44.722656 201.105469 45.039062 201.085938 45.355469 L 201.0625 45.675781 L 200.457031 45.726562 L 200.238281 45.371094 C 200.160156 45.246094 200.082031 45.117188 200.011719 44.988281 C 199.699219 44.421875 199.546875 43.765625 199.550781 42.984375 C 199.554688 42.164062 199.597656 41.347656 199.679688 40.550781 C 199.671875 40.59375 199.664062 40.636719 199.652344 40.679688 L 199.484375 41.570312 C 199.476562 41.613281 199.464844 41.660156 199.453125 41.714844 L 199.210938 42.761719 L 198.722656 41.847656 C 198.699219 41.816406 198.679688 41.773438 198.660156 41.71875 C 198.046875 39.855469 197.753906 38.152344 197.765625 36.523438 C 197.777344 34.171875 198.429688 31.953125 199.691406 29.921875 C 199.839844 29.683594 200.019531 29.476562 200.195312 29.277344 C 200.253906 29.210938 200.316406 29.140625 200.371094 29.070312 C 200.4375 28.992188 200.511719 28.9375 200.566406 28.902344 C 200.578125 28.890625 200.59375 28.882812 200.609375 28.871094 L 200.851562 28.679688 L 201.179688 28.96875 C 201.46875 28.367188 201.777344 27.761719 202.109375 27.148438 C 202.683594 26.089844 203.554688 25.308594 204.765625 24.757812 L 205.34375 24.496094 L 205.445312 24.492188 L 206.191406 24.453125 L 205.5625 25.402344 C 205.445312 25.578125 205.328125 25.75 205.214844 25.917969 C 205.222656 25.910156 205.230469 25.902344 205.238281 25.894531 C 205.707031 25.351562 206.195312 24.808594 206.667969 24.285156 L 207.097656 23.804688 C 207.40625 23.460938 207.730469 23.359375 208.21875 23.449219 L 208.804688 23.554688 L 208.453125 24.039062 C 208.234375 24.335938 208.027344 24.636719 207.816406 24.933594 C 208.171875 24.449219 208.539062 23.976562 208.941406 23.519531 C 209.484375 22.898438 210.136719 22.734375 210.988281 23.011719 L 211.480469 23.167969 L 211.179688 23.589844 C 211.105469 23.691406 211.035156 23.792969 210.964844 23.894531 C 210.808594 24.117188 210.648438 24.347656 210.46875 24.566406 C 210.152344 24.953125 209.820312 25.359375 209.484375 25.78125 C 210.015625 25.128906 210.582031 24.441406 211.226562 23.660156 C 211.335938 23.527344 211.464844 23.429688 211.578125 23.339844 C 211.625 23.304688 211.667969 23.269531 211.710938 23.230469 L 211.953125 23.019531 L 212.441406 23.441406 L 212.316406 23.757812 C 212.292969 23.8125 212.269531 23.871094 212.246094 23.925781 C 211.617188 25.285156 210.847656 26.710938 209.902344 28.289062 L 209.71875 28.59375 C 209.015625 29.761719 208.292969 30.96875 207.679688 32.203125 C 206.820312 33.933594 206.1875 35.601562 205.773438 37.253906 L 206.6875 37.386719 L 206.308594 39.75 L 205.34375 39.625 L 205.460938 38.957031 L 205.734375 37.421875 C 205.550781 38.171875 205.414062 38.921875 205.320312 39.667969 C 205.109375 41.320312 205.089844 42.949219 205.253906 44.542969 C 205.210938 43.949219 205.210938 43.367188 205.246094 42.789062 C 205.253906 42.679688 205.265625 42.5625 205.28125 42.449219 L 205.324219 42.003906 L 206.066406 41.921875 L 206.105469 42.300781 C 206.382812 45.125 207.054688 47.90625 208.09375 50.566406 L 208.21875 50.882812 Z M 204.664062 49.140625 L 205.730469 49.78125 C 205.730469 49.777344 205.726562 49.777344 205.726562 49.773438 C 205.703125 49.710938 205.675781 49.644531 205.652344 49.582031 C 205.605469 49.46875 205.558594 49.351562 205.515625 49.234375 C 204.460938 46.167969 204.144531 42.917969 204.566406 39.570312 C 204.886719 37.039062 205.683594 34.519531 207.003906 31.871094 C 207.628906 30.609375 208.367188 29.390625 209.074219 28.210938 L 209.257812 27.90625 C 209.71875 27.140625 210.132812 26.414062 210.507812 25.714844 C 210.128906 26.175781 209.773438 26.617188 209.425781 27.046875 C 208.605469 28.066406 207.878906 29.195312 207.261719 30.402344 C 206.617188 31.667969 206.0625 33.066406 205.46875 34.941406 C 204.675781 37.441406 204.210938 39.703125 204.046875 41.839844 C 203.941406 43.195312 203.941406 44.289062 204.054688 45.28125 C 204.164062 46.273438 204.40625 47.207031 204.773438 48.054688 C 204.960938 48.480469 204.925781 48.835938 204.664062 49.140625 Z M 203.617188 47.007812 C 203.628906 47.085938 203.644531 47.160156 203.65625 47.242188 C 203.734375 47.675781 203.933594 48.097656 204.109375 48.46875 C 204.121094 48.492188 204.132812 48.519531 204.144531 48.546875 C 204.144531 48.496094 204.121094 48.4375 204.089844 48.355469 C 203.902344 47.921875 203.742188 47.472656 203.617188 47.007812 Z M 202.167969 46.96875 C 202.238281 47.039062 202.304688 47.105469 202.367188 47.179688 C 202.597656 47.425781 202.828125 47.671875 203.058594 47.914062 C 203 47.742188 202.949219 47.558594 202.917969 47.371094 C 202.535156 45.183594 202.464844 42.953125 202.707031 40.75 C 202.988281 38.238281 203.617188 35.667969 204.574219 33.113281 C 205.34375 31.0625 206.167969 29.332031 207.097656 27.828125 C 207.941406 26.46875 208.972656 25.207031 209.882812 24.09375 C 210 23.949219 210.113281 23.796875 210.222656 23.636719 C 209.941406 23.644531 209.71875 23.769531 209.496094 24.023438 C 208.792969 24.828125 208.179688 25.703125 207.566406 26.597656 C 206.074219 28.769531 204.890625 31.167969 203.953125 33.929688 C 203.355469 35.6875 202.847656 37.601562 202.398438 39.796875 C 202.089844 41.296875 201.800781 42.898438 201.910156 44.535156 L 201.917969 44.625 C 201.9375 44.945312 201.953125 45.222656 202.097656 45.453125 C 202.425781 45.957031 202.445312 46.488281 202.167969 46.96875 Z M 206.433594 25.671875 C 206.222656 25.910156 206.007812 26.148438 205.800781 26.390625 C 205.359375 26.902344 204.800781 27.589844 204.417969 28.378906 C 203.714844 29.828125 203.023438 31.285156 202.445312 32.519531 C 201.835938 33.808594 201.472656 34.835938 201.269531 35.839844 C 201.164062 36.363281 201.058594 36.890625 200.949219 37.421875 L 200.746094 38.425781 C 200.457031 39.875 200.300781 41.410156 200.296875 42.984375 C 200.292969 43.390625 200.335938 43.746094 200.433594 44.070312 C 201.089844 37.039062 203.0625 30.988281 206.433594 25.671875 Z M 198.671875 38.660156 C 198.75 39.152344 198.855469 39.652344 198.984375 40.167969 C 199.082031 39.648438 199.179688 39.128906 199.269531 38.609375 C 199.242188 38.625 199.210938 38.640625 199.179688 38.648438 C 199.007812 38.710938 198.828125 38.710938 198.671875 38.660156 Z M 204.378906 25.8125 C 203.675781 26.253906 203.144531 26.8125 202.765625 27.507812 C 201.378906 30.0625 200.402344 32.507812 199.785156 34.988281 C 199.621094 35.652344 199.550781 36.214844 199.566406 36.75 C 199.570312 36.832031 199.574219 36.914062 199.574219 36.996094 C 199.808594 35.847656 200.066406 34.847656 200.367188 33.921875 C 200.765625 32.679688 201.324219 31.5 201.863281 30.359375 C 202.75 28.476562 203.535156 27.0625 204.378906 25.8125 Z M 211.609375 27.035156 L 210.871094 26.867188 L 211.089844 26.425781 C 211.105469 26.390625 211.125 26.351562 211.144531 26.320312 C 211.621094 25.597656 212.207031 24.808594 213.03125 24.203125 L 212.515625 23.796875 L 213.308594 22.746094 L 214.195312 23.445312 L 214.023438 23.644531 C 214.140625 23.605469 214.257812 23.566406 214.371094 23.53125 C 214.898438 23.367188 215.070312 23.644531 215.175781 23.964844 L 215.277344 24.265625 L 215 24.414062 C 213.886719 25.03125 212.824219 25.839844 211.753906 26.890625 Z M 211.609375 27.035156 "/>
<path style=" stroke:none;fill-rule:nonzero;fill:rgb(100%,100%,100%);fill-opacity:1;" d="M 400.242188 127.125 C 401.488281 120.875 403.132812 109.726562 405.175781 93.699219 C 407.222656 77.664062 409.316406 65.386719 411.476562 56.859375 L 408.242188 56.859375 C 397.917969 56.859375 390.769531 57.65625 386.796875 59.246094 C 382.824219 87.898438 380.558594 105.578125 379.988281 112.285156 C 374.996094 115.8125 370.742188 117.574219 367.226562 117.574219 C 364.273438 117.574219 362.800781 115.8125 362.800781 112.285156 C 362.800781 108.765625 364.046875 100.917969 366.546875 88.75 C 369.039062 76.585938 370.292969 68.570312 370.292969 64.703125 C 370.292969 60.839844 370.007812 58.113281 369.4375 56.519531 C 358.773438 56.519531 350.375 57.710938 344.25 60.101562 C 344.703125 61.578125 344.929688 63.167969 344.929688 64.878906 C 344.929688 72.835938 343.792969 82.785156 341.527344 94.722656 C 339.253906 106.664062 338.121094 113.882812 338.121094 116.386719 C 338.121094 126.847656 342.886719 132.074219 352.417969 132.074219 C 360.929688 132.074219 369.78125 128.835938 378.972656 122.355469 C 378.417969 126.898438 377.648438 131.605469 376.664062 136.476562 L 376.523438 136.476562 L 376.523438 136.851562 C 367.109375 138.898438 359.621094 141.796875 354.066406 145.546875 C 348.507812 149.296875 345.730469 153.445312 345.730469 157.992188 C 345.730469 161.402344 347.402344 164.1875 350.75 166.34375 C 354.09375 168.5 357.8125 169.582031 361.894531 169.582031 C 372.210938 169.582031 380.578125 165.632812 386.984375 157.738281 C 389.960938 154.070312 392.496094 149.902344 394.601562 145.242188 L 405.851562 145.242188 L 409.222656 136.480469 L 397.957031 136.480469 C 398.851562 133.511719 399.617188 130.398438 400.242188 127.125 Z M 408.117188 137.222656 L 405.324219 144.484375 L 374.570312 144.484375 L 376.515625 136.847656 L 376.515625 137.222656 Z M 366.875 156.257812 C 363.808594 158.589844 361.054688 159.757812 358.617188 159.757812 C 356.171875 159.757812 354.957031 158.675781 354.957031 156.515625 C 354.957031 154.351562 356.855469 152.132812 360.660156 149.859375 C 364.460938 147.582031 369.089844 145.933594 374.539062 144.910156 C 372.496094 150.144531 369.941406 153.925781 366.875 156.257812 Z M 366.875 156.257812 "/>
<path style=" stroke:none;fill-rule:nonzero;fill:rgb(100%,100%,100%);fill-opacity:1;" d="M 374.570312 144.484375 L 405.324219 144.484375 L 408.117188 137.222656 L 376.515625 137.222656 L 376.515625 136.847656 Z M 374.570312 144.484375 "/>
</g>
</svg>
